<mxfile host="65bd71144e">
    <diagram id="HIP3nbAZw_EuaXWnEj3U" name="Page-1">
        <mxGraphModel dx="654" dy="299" grid="1" gridSize="10" guides="1" tooltips="1" connect="1" arrows="1" fold="1" page="1" pageScale="1" pageWidth="850" pageHeight="1100" math="0" shadow="0">
            <root>
                <mxCell id="0"/>
                <mxCell id="1" parent="0"/>
                <mxCell id="7" value="http://ics2o.mths.ca" style="swimlane;whiteSpace=wrap;html=1;" parent="1" vertex="1">
                    <mxGeometry x="80" y="80" width="770" height="420" as="geometry"/>
                </mxCell>
                <mxCell id="8" value="&lt;span style=&quot;font-size: 16px;&quot;&gt;Multiplication Calculater&lt;/span&gt;" style="rounded=0;whiteSpace=wrap;html=1;" parent="7" vertex="1">
                    <mxGeometry y="20" width="770" height="40" as="geometry"/>
                </mxCell>
                <mxCell id="10" value="What is the answer for the multiplication you put in&amp;nbsp;" style="text;html=1;strokeColor=none;fillColor=none;align=center;verticalAlign=middle;whiteSpace=wrap;rounded=0;fontSize=16;" parent="7" vertex="1">
                    <mxGeometry x="20" y="90" width="370" height="30" as="geometry"/>
                </mxCell>
                <mxCell id="15" value="calculate&amp;nbsp;" style="rounded=1;whiteSpace=wrap;html=1;fontSize=16;" parent="7" vertex="1">
                    <mxGeometry x="36" y="300" width="74" height="40" as="geometry"/>
                </mxCell>
                <mxCell id="19" value="6 x 9 = 54" style="text;html=1;strokeColor=none;fillColor=none;align=center;verticalAlign=middle;whiteSpace=wrap;rounded=0;fontSize=16;" parent="7" vertex="1">
                    <mxGeometry x="33" y="370" width="80" height="30" as="geometry"/>
                </mxCell>
                <mxCell id="23" value="" style="shape=image;verticalLabelPosition=bottom;labelBackgroundColor=default;verticalAlign=top;aspect=fixed;imageAspect=0;image=data:image/png,iVBORw0KGgoAAAANSUhEUgAAAOEAAADhCAMAAAAJbSJIAAABUFBMVEX////62kwAAADr6+vu7u6VlZX/30zQ0NCRkZGcnJyJiYn7+/v19fX1fyrAwMDi4uLX19e5ubnKysqxsbGEeEqnp6eNfTnv0UmBeV7lyEj42E2CdD/ErEX7gSp5azfJyMlCP0B9WEPdwUV7bj+MTiSplDikkUOumUXreiiCWD+3oDyQgEGThlUoJCU6NziCgYFXVFV2dHRQTU5lY2QeGRpvbW4wLC1dW1sMAAX/5U0+OzwVDxArJygAABz02FkAACXGsVmsnFkAABPXejoAACJPSDMAAAsAAC1gVjVjVyqEdTbnzFl7cUhcV0RxaEd/ZVdjUEZvalZ2cFp7eXAOIymNYULGdD28qVfQuVU4MysdIDCcjVEQGDKWgzMrLDZFPzBgWUGyb0LZv1EjJzg7NCMXI0BTUEdmWSpWSiNNLRhpXStHQSaml1nPtUIWGSwkIyw3gAMWAAAgAElEQVR4nO2d+3/URpboyyWp9Rw9WhG+GEJrYWLvQvR+tVvGGCYPwMDO7N0ZCISE653LcoeQ/P+/3XroUapSPutMZrNguj4fwByrVPp2vfocnXMKgItf/vWfxPLH/yWWP/3bnPCcssfnrTvTyL/9mkb+NyL8l38Wyu9+v7crlM/eibLrn4kXXn8oyi5fE2V7N66Lsv2rouzm/vka2bsmPuDe55jwd0L59PeLHb4sbl4XhbufibLLl0TZ3o2ZG964LMr2rwoXLq4ezDRya+aG1/ZE2S8jFGQ7l89JuLsl7GVbwqGRv4fwD5/2f00I+58YwsWiF46EjGwkHGQj4WK4kCEcZT3hYjFcyBAyjdwSZT0hEXRilvBf/v0Pn37653//y6cTwsXepV2e8Hj/0tNDnnD/5dM9nnDx7OUZR7i7//Ll/vGUcHH88uXpYkK4OLn08uXLk8WU8Hi/E7GEB5ee9R8PJVyc7ePnoWKW8M/3jv6C/0wI924+/rp/jp5w8fibl3e6RnvCxSfPL33xYsERHn/zRfdEA+Hlb28JhHvfvXryxbFAeOWLu1PCxevvH97pbtgTLj756dKdpwuG8PJBHGIxvZQl/PTPZVTW3CjdvXL/R4Hw2snhk1d7E8LjW1cPv3zEES4+f/ScJ7x++/Td3mJCuDj59vhwd29CiAbZ4SddGwPh4bd3d8KDKeFpvH/45D5LeHrtbbhzHB8cfv+II/zd7/5Ylv/nU26lOTy5wxOi1k9/urUzIdxZnL59/owjPHt99i1HuHh6+8sfH+1NCQ/iRw/6bhhWmsXZ12fcPFz8UL/57pQjrBHhl8cM4c7hrXBx+h8nFJzrw1LoQ/QBzxA+izfHPOHxwdGTKeHi1dNdgfDs6s7Tb8+mhJ/dvnXlNsVh1tJHXRcy8/Cb+589358S7jx6/vCnKeHi5wj/fC9C87D+w39JuHj245Pjflp1hLv71w8f/XVvSvh/790rv9qZEl49ODzjCZ+Ge4uv73KEx/3sGggXz746OXz0emdKuLh580+TUYoJd06/Ozj88glH+E9oGZ1ZS0/ElSb85ubVq9N5uPv49c2fPuFXmp3LX4uj9ODV99xKc/rtrVtfnE4JF0+/esYR7uzcuf/Zty+mfbj36tXNL55yhBvUtZsDIp7Mw7/M7YeLZ/d5wtMH//ngzSdTwsXpjTcv+pHLEN5/xq00e0/f3Oh3hmG3ePbgwQk3Dxcnb477Rxjm4TPUSH/nfi29fOPN3f7CjvDgEZo0nXhC+OnwF7vjj/sps9IMu+x/seMPtSc7fv/TsOMvxB1/bPcft+N/BN/atoQfMOGnYvn94UIoNy+Lst2b4oW7l0TZzhVRdnhjV5QdvBMuPEQ7jHDh5VszN7y2I8ow4R9/L5b/d0ksf3soyh7+54zszUzlty8F0cu3Mzd8cG2m4Qfna+Tl2xnZK0T4iWjd2LkFTL4AzxGEQPZFmaWIMlObuaEiiRd6rihb2aJMCmZuaJjihQomFAbvzuLSjE0OEQoFEQrFUkQZIhSLIs804oqypS3KEKFYjLlGwJaQaXxL2JUt4dj4/wDhuz2RUDX7xntCU1Wl7seR0F32v2YIJbWDGAhRXbWHGAiR0Oob6X7pLNGFDkfINDwSuste1hNKLiNmCfeuf377mCeUFNjfYCBMojByOEKvDUtbIGygzRE6MA8rnjCL6pgjDDZhCBWOsIriWOYI/TKs+4+MEJpOnuLn2cQOT3j64+2SJQxU9LQbuOYJZbgCsTYlNFMF5BVP6KXtiiNc1QP+QOhCx7TlKSH+MZSnhCZcmqU3JbRCDTQZS6jCdYHECogNnnDn8K7Yh6iC0IcIrFSmhJihXHKEVqxCnjBYw75fB0J/4wf9vUdCC3b3G/uwKIya60MHjZwkNxlCNCQKIEU2KBqBcDFHuJohdMLI5AnlqjU4QiMwocoRehpIamlKGMAqhUIfann/00CY51XrTAlBE9plbvGEDho81d9P6MYpv9KYrgWykCNcx2EZcYSOBFb9Uw59WFsW9DhCKxrWkp5wCSVzo3GEclI1DeAJpSMPpMXfTRjmksn1oVVnVl5whKpqQ50jzCIz6wfVMA/Xy1Xf2QOhCofe7Ald6LltMCU0tcCsdYHQbCq5DETCH+6JhLZA6EJUsikhWK5h6HCE6DmEeSilsBR2iwDCYRS7g6zfQMZRqkNYmVNC3HDW72cdYYHGt9vCwhIIdxaHF37Hv/jfabaEQvlACAXjxmKW0J4htGYITV2UgRnqcxOqM4TyLyF8clMoV/+2soViBKLMT0SZV51PZlf+TCO6KFO08zVsFzMyvOg/ui6Uyw8lhy9SsBRkjquLF7qGKHOSmRsa7kwjtijzA7GyqszcMBHblXC/nncezo3S885DsF1phka2hF3ZEo6NgC0h0/gHT3j86vadHxYcIfo63391HwnlCPY/9YRODDe8buFsYMlpwPqRCaQQRhJD6CLtBV1KDR4doUq0KR0GDKGDdUi/e56O0MzRfqf1qg4hlFNsRbD752YIFwdfXz65171O7wklaDutzxMm8ZonLBqgeRwhUrKzlCV0IES6YZWa1LJCCK0NRIRZhG5qDoQ5xNqhE0f+SFjgB5eg5yTOQIjUrgTddelQ9ZIQGkemfuTEukStJWwf7l5enHTuAQOh6QAp0jlCt1D4PpRq3+nH3EAY5G5hsISmlIQmqDWgb8yhD2UPEcoyUIgJhhLKqxb9W+kxQyg76JE96DikayihJYcJMOOgU2JpH8rAb9VWnbNELc6+fy3MQ7M4cjjCRvV5QieKS8ESpbbRurdydKNUQ4RrHQT1SIiNE+hvm5p5ulHqIsJlYdUMIbAQYbAOYSODcR4iQlC0JTVGGn27iYvGAP7VlHDx7KfwmJ+HVrju535PqJZK0ZtVBsIyAGnDEcYZUNYiYaQAPWYIiZ3EgwngCNNCiwqJI4SWu/amhDZ0LDphKaENCzRyXbDhCRenP145POQIzXSweA2EkiISWrkOGt5OEyFCKBKi6wpiWmUIV5wlChP6iiEQutByeEIPuiyhi21DUhRY0OcJX9yOvrl3Mp2HKmzrUpsSArzIgSkhGmRlb3oeCL2oLLlRaqDhqR6VrcsRFrCOyFrcE5Klw2qno9QDZtK2xP7SE6JxYjZtZ08khBU8Oiplfd02gp0GKxXvdqd9KLuoSAKh3I/ccT90+suY/VByh1cdvRHQYcQdoeWaqLbrOuNaimT48Uy6eg22NgubLclvRouwhC+jMkqIb0XuSGUf146/JdwS9uX904AfXRbK7kNL5ovlq4JMdgLxQkcTZZIxc0PDmWlkKTbi+WJlV5+5YSLWtfBH++ozsTzwxZLooizIZmTF+WR+Ecw0ookyIxFl+kzDfjMjwzvvjDXx8NzWRE+UnduaqFuizP411sTZqQC2Kw3T+JawK1vCsfHfnJA4gl5kwr0Xb7884QlXed7fayCUstDgPRWkYtMvoT2hn6Evy01IxD3hqjCBF4YbnyGUYxlYSVg5I6GahvgmQcYQOsXGQIuvGgYjoVyFieVtwu4hqT+NEhYOcBp63UR7Ovn65o1vOUIZ6kH/Qn3U8dNVxOmHZtOsensOJXSKtgFWnNnkzTsllIoS6YdJ5VJvJ2qnMWKkPSlrl7oBUMJ1Yreei+8wEuYF0fxS+kKcElb5MszkpepRmwwhDNpVmspp5dPnZvvw3c3F3ec8oQ/ckiOUe68CwOr4K1BNNGDZbxpg+hJIq4HQ8gtEWGQ6HXaE0LQ1RKhtQNaMhIEMmkr2cobQ9CSsO/tGzBCiLdrA3h4VdVYihKsVSAqnVbE9iCPcOXx77xZvxUDKbspZE9V1DjfWlFAqdZCnLCFqj/w/INr7xIqxMSA7SrGdRmoh1fIHry/cKxnbh9g84VsRqJWREPG0Gtah5ZEQWCX0nXk7zWL3xW3O1obvuw6mhC4MnIjz+gL6Oq45O02Skg9oMg8xoQV6d6Vex5dBhvowtEZCjVSrJoQ+NIBWOVHG6PgesYo2nb9Zb9jLouV6hnDx4srOyT2OcNlY8hFnTZTR55MmHKGkSjnnE4UJg87+MhICq1kBxl5KCLFhNyhHK0bQkmoTQh9PaCXPSzJrKKFKPgin9xkkD5AowF+rkQ1KnSc8+fba9+HedJRKZVH0fojDSlPFSe9zNq40cRZxdpokB3JbG8m40qBniE2Q9tUZO40CjZJQE0ITbki1Kh8JrbiktyrHeWjmayMx0A1chjCAyVEGsrqKBN/ExbP9A8GaKAWjU92wH3pBv9aM+6Gv8/6lKw9YehCQZaUnXPp4zeiqd4QO/gZu67SzPdpBqBr6v+2NhHInA7QyJQxwAU4gM4RgpeNG+ufhd/wL/p3m4n9r2xJ+uIRiHpSd34ZQEmVzhKtfS/h4JhDrjaLxRakSQagYhSjT0hlZPnPD1BAvnGskq2YabmZumCvihfir5LntNDMf+f+cnWZm8GztNFvCLeFQ3mvCC26nwVHYVwVCU+mXy4HQ0hX+m7dnY7FGHq8ndPFD+BpRIzpCV8Hrp68xOj5wFLIvuhpjp0EtoGorLTBHQjPQVvgynX1DSm6FrpZYQgc/R0AfhiN8clvU8Q3YB2INhJvc6PUVSugi5QeYUZMQcWfFCEqkHxot1ed7f5okbYERGTRIgRA666xq0QO2kPEYwi0sV9AIi5Gw2GjQdtEdwlEDTo4MpCFGaQXHt9zYG8cHRZhAUXs6ef2lQOiEQ9zUQIi02v79PCW0K6S0OZkESDhUZ4mqwgZYtQdI8AklXCVAgm6kgyYZCTMSMKNXJUNYYB3bD0EQDYRW4oJ1gO7gwkEDNo0Vuk5dW8AyR0I/a32pXYGI14B39l6fPBYIq2Uh9KEWpyVnpwkpAdHoGTuNBJNGGQkBtmq46CJi4GDinlwpciZeX0BtAzlOaTRMNw/dkIQTGdHoEwWcNHL9OCvoTCKEUu78jJ1msf/o+DVPaKeDEWQgtDaZ38efdYQmIbTpgGasGBKs/LXOEGowsAgh408ToIGWBNKEcNU2qAP9ImQI5QAbEhNqxeoILT9CD6MbdERSry8F/Bzho3v3vrp3d2qn0SFs+0DHnhDbxtJpVBAh9LsLGUJ57YKiGAmzFj0sDLpPjRLq6JHNEMKSjD5KiKYgmk4ZasoBg44vY2ti0pky6ShFenxS2xt0T38gzPGtVqUKjkRr4o7Yh6ikfB/KqGPgZB4Cc2MAuWyW9rjSUEtU0fiMRRg9+Mq2stCj9ilC6MJsid9MOuxKU+a27SqtXzDzsC486K+gtrIHry8zT71Is6CiMX5tgPCmTSBahHF+jgNxPzQGB6DBc69qhti4jjQLgFoUTRowhAFq0MqIqCP08SWqjOYmGAhtLLOxPdwdCJ0GyTSgN5kzEKJWUx0E+OrR1uZkeJqjlmkAWU/Y2Og3KZ2bH9uO/xF8a9sSCuUDIdwTym9kp/mtCB9fuyKUt+ez02gzdhrNEO002s/YaURZkZ3LTqPN22nEdrd2mkn5cEfplnBofEvYlfeZcHHBCffevXsn2GlcdciOM7zHR2uqtaSJeQZfDIdcusTCjtBZMolwOkJZVfELcXU5eptgmYWvdhhCU1VlYKGmVZbQUUnDE0IHVUaXLUdCi+b4cZeyQHj6/K9vv+cIrU0d5pO33JaN9DuzOIqSkdBSI3TzOs5JfhxKuIxCpDcFZRxKA6FVb6IKKOuc8RiSmzgqzGUbRupIWBzVueWuw7BhCOUWWlZTM2+50X1jpCPBMK9HO80S5qEB9LLOZY5w8Sw8PjzkCOVo3AQpYQaR9mVDk2YooYQkr4XcJ2WhhFkD9NipA1CPOr7fmi50s36/JIRqK6tQqpouIIVqT1B24HLZB7N0hEYKTQ8Cr2SsGHoauXLb76v0PT6+jxT5ZitElJw8v3P7BacBS0jFNzh/GkSoQ+C0SzCx07glpJE9wzxMYhcuWY8hgC0dTlrCmI3OWzaVHAbACAdCpPJVIfBaCJmIEjf3oKnVwF2P+qFcLlvXRdcZI6HRwrU7GxW0c/bw8l0+Os8xJG9IrDISaiXxgppYMRzDoSmFekINeth9qmEJcXiT4Vn1aGtDsjxSY5+42gwrjZ227kqxNGj2hGbjLiFINiRgaPD6Wjktjo63qT5P+1AHRT4f2XX5Ms5FzMUfOqizbIEwgOijVKeEstOZSzrCBNokpRSOgewJgzX61zH79D9y1wIMkPqe5EMfyi4OXJJk1ONyT+iUYdxmWgTUsQ8tGIZlaDrAZPzaHBkE9Wx03uLFnbMf7nBRQR50/Hay0hAM9BEFZIYyhDZUbWI4ooQ+9IBlhYlTjl5fDtRMy4SG3JkyZXKd60E3iU06qAjhErrL9TKLpYTkzaJ2GlXVobqCrl6P0Xmq6rcequ5Tty9qiUotNOw3htuZnZk+PH5y++unvCXKgL3RaSTEvkmduCfEKyu6lIY9EsIQ5+mR1C5YlRIqWLay285VjnruoaVLB04NyZrbjVIDT2krhTQCrN8tPGjh35D/9bsFTkWU9c9I+zCEaM2z0R34KFmcgOdwa6fhy5awL1vCsZHfKAPPB6Dj/5KYmceimebKW10smSHKtEqUKc1M5XRG1miirEpEWZLNNFycsxH8HW4mdu3yQ0vii+yrsiB0A1HmGKJMmpHJhivKgpVwoez5oszVZ26YiO3K2ww8k8Y/3JVmS9g3viXsypZwbPw3t0Q9uv31DzyhL2TgcUg0C6SRIoP2lGCFkIYkdd4mIcQapATzkdAKsRbgRjC0BkKTVJNzSFOjdIQOjMcEPn3WiHVkmlWnwFBC9HTYO2IFi5HQKpD+MiYMZfXDp8/Prl7hCIeMNwNhg+sjPcYmiihjp0F6jMvoh1kMjI0Fik0zEuol0n5AmJmMfqhCB+m5Rg30gCFs4hw0KTBG/RDHamwQkuUTxZQS6jRaLa2ZuCeltnzdaT1VeI+/eHT/7Do/SoeMNwOhjDVLS+ryHHW2NmejAWnj+8TNpvOJkgHSVVcFdZ3pYtdkp8iwBp0VAyH6aqHlUq449DshJbSzJASSBbT1SOimemy65VJrGJ+oPE9QOwYb2ZVnkoM/N0vIQbt4fPTNF484wiHjzUBILBM4BxTRYlmPobQsCU0/D5dIo08dgyHEenGCk7AYrD+NBlMn3HTJejqvL5nYpTzqv0IJG9WPgRyXa2IL6Ow0lV1nVmixhJu6hr5XyuBIiAp6fH/n6b1TjrDPeDMSksy5DszJZ85YMbzWkVmfKGx0WsEgr9nYNaBDB/chG9mFPvAgNLpEy4TQK/X8CKfbodFVhFCNlKL0tBLYo9cX6cbaD/VwM1qiNhlQYq+VLMHra7H/5c7T2xzhkPFmSmitRY8hHxOOlqgVXhEcRWEJixw9tRknfWigTJAtFy6rhCV0UbWjld1n5aGWKAUTGhNCE03/pkBXs4SoP5XaXa9oipupzfvLn378nM8x1Ge8mRLqMDqaWBNrA8hpuybTixKm8CjCZtGMWUvdNmoV1EMRk81Mzkv0calRVE7iD5MYjeg6KgdCQBYqZ9O2zCj1yjLGFRpmLXXCsvWB0bZCNrOdxfH168LJAX3Gm5EQp+6WcJYbayQkiXAsnPhmIOxz6pCcO/0odUjunT5ZT/feglTrs/L0hKiai2/BEmJ7pdxd13vu0Vs5zkhILzEd+jAf2Y6/JfyACd+n3Cb/LZmSX+2L5b7tCcUIRJmfzMgqUeYVM7Jq5oaJLso0Q5QF2Tkbwdvak6ti+Rt+9zstru4JMtXWxAuXiShTs5kbZrYoU3yxbqCLlW1j5oaVWNfFe8uvGqUz8/Afns97bh7+olH6Eaw0W8K+8S1hV95fQrrIXGDCxau3qHB5MZIwzMNp9hYrxVqJHTLvgJ2CpORxc+abt2WEhTQk8OkIkcwFShjGNkPohgFJpSMzhHJTAdMIMyayi1bzN407EppVaFggyPPRV99M0SOnlprnoq/+2bt3n3x3PO1DV3W1cmKnUUKi48esJSovVrVhZnXLEGqtmjZSqdFEOJ0/DVwWNWjQViaPhGazVkC2ceMxLwZ2GcmBFtvEy6HX8dHWK6vQz5oxF3QS2mHgQt9gIrvQJlg0UmwErRDZhbPQngij1OxTB3WEqwAT6kbMEPoOagt4CUu4WgIvctul1KoDoboCxgapvzqbF8OvcgW/VEO/GQidHKmVSE2m+Yq7HEOK4nYOGz0hPcHL9YAHhz7EAii70JEFjyFsi3rM+0Shvkj7nxg7jdRSV6dhHpJjj3zIEGIvrQqn2m7YyC5sC4RpwkTnyblMckKpkMmUnLtGCDa4+kAotWkG1SqETNyTBUOSRTyFjJ0GmDk2qUiinQY7tl0VPBXMwRWD1fGTRI0SRgP2iUVlSuiWqYVPaCrH+EMcY0fid0JjIDQqND4t9BGRxDqUcFW7VSwtj6J4JMRBfq2SxZZxNFgTLahI+Jw606fpYCihCh1gt5IpRuct7h6dCruFDYcFjyHU8pCmDe7iD2Fnn2V1/KOK+HiZxHGHEmoKGk9244B4tJfqOKeOqvZHX1HCMK9b3XId6glG7TSFA9a61nRHfnWj1AZVY2f9uVKUEDvhONB1RH+axZ++FLO3aH329amtDXQZfChhVBqJgg1zDGEFM8NwjtKiZVeaJG5AnFeQ8b4EOPNTCrVEGQjxY27QWpWUo1+bFaJqkguzmNhk6EqjHWWth2Q5PfyMEuKkYWaaFzHvm7izOLgpEi7HDa/fLWhqG5oIhxLqQRD4OPCXIfRxchyrT+DTjVI78E00prqkPsO5a6rp0zuMhCsfp9Khm0AXB+zrEk7X4zM52YGHFy0VNTQSmj4xkQWBeMIje5z5hdzxP4JvbReY8MJrwOe0YqjntWKsfoUVQ523Ysw0/EusGK8OxPJg5swubebMLs8QL/SymcqVKFtlc2d2zTSiz57ZNXPDmTO7Vvib7Xs/Sn+1NfEjWGm2hH3jW8KuvMeEFz5v4uLk5b5wWm6f8QaMhPibt9SJO8KA5NSxNPJNuSP08flPkq64LKGjqcAMFJcllHG1gGbq6fOXKgr6paoFLKGvqd0dekLZQNcFYKnok2/euGFZVxyecPH0i4ffv+IIXZjk+cRjaJVhHR8rLKMvRhUbWEPMWI+hpNWhYkZFxthpcFqOADSbZKI9VahaVWtsll2Y6Iq8hEnNRHZlpYJ9lWLGYwgTRpULjfxoJMwiBQZm3lSRENm1//3e3e84Qg8Cu56cM6NU2OOoBYDpw2yFX9cv05whNDwQJlYlmUxkF/CLjY+9TRgNGFdTzDAA8agfmhC/+cYuJNZAiM8SR3o+Tq8zEKJix7JtAJfJ3pIbINeQBiytbZ7wdPOm5iO7kN5Z96O71w+xFSPPKkY/xAeIJSBfpgwhMHOajgWOGVrNyI19/DTpGPdkNmqoAL9samcgdGFYNmBTVNWY+cONkkYH8kZas4RmTf414JhjyIuatTtrxVjc/e7gPh9/aK+DrD+mntHxM+gVJDinI3Tq0PIzk+1D7CiRgf6kqi5mRpMFwiADGwU0qVeOXl+SjV2u4tjPw4FQJTljNB1MMvB4xKsjYWNmitwu9VlL1OL1tcOTr86mFuFsAxwudg0TGmkn7izC2NaV4WQ9g8eQFWALo+V19pfOnwZf4qP6G2UgJNW0dtklDaZ9GABpjUeEN1qi3NJBA7DoM/V0hBv8tbMou9O/MSHuYy1cQkeifkAs4ec/Htzn56EPgyyazENCqEK/ikdbW157NmrEYvswzVdrQ14XK5tdaSQ0qsKmT5feDY5YM8O88/AihCpqtbT8yE+ZlSYtSOIek/VNJDFY6FOkWXloH4ahvTasOFNaiSPc2Xnx5tEZR2gGTdXvUL29FGfAsVMqpoRN0eCMYGbij4RSlmqm23RZeXpCOcPJcboEPj1h5uOEObo5EAKbtKo3mTQSSjSZj1kwkV1SivYYvSiafPSJQrc3cFaehnYsv+NvI7v4siXsy4dB+OFGlFz8qKCLH9l18aPztivN0PiWsCtbwrHxLWFX/nF2mtN3ZwKhtRyaHM4KQg8mdeKOEB/gRN4jjPlpgEty6lDRqFug/zqquhy9TUxcDzvjqMw3b5Nk5emOhep0/CW6zuny+gyErkpyV7gsIUnmY6mq6Ml+tvnrT3c5Qjmv+2OB+qggD2lPTr2hiXC6uKdyc+QaYR4zuU38MmxtkJR1PmbgwV4TK1CVOeMxJEVxmFrAgiWTNSIr69D0ow2N9iKEXhzmUHeisFVGQr2MYxc4RcwQ+lFYumZR0xRBE/3wk+/37n7NEeoQrKYeQySyC4n9o1E/jHRQYacUhYkKwuaSTEJqMlHdOkIvjFYg7PdQmqGVHh2VNPVI6EDHtLGBJ08GQlTsI9MIARPZZUZI29RduM4ZwtoARYY04NWa9xgiOj6fnyaJgbOe6vjYTuMc6fTso2Ee4uO1VJoJlhCiIaJA11/bk/f45QoRthHMx+g8FWIfG7deRSOhX5JqljLJ/EEDroDGxq7lCnYJoS4blBA7Cmm5VuND5XnCH5COz5/35CFte8aKsYRJWDGRXVaDO7rLi91bojKoBLAgv+m9TQK5VIGxktZMdJ4mB9Ap3FU0+rXpsEhRNSlbawyhRgJoFFbHzzZZZGPnL6YP09AuU9IzorfJ3QePbnN+bcBrEu7cNWKJygEN7+ui84h3n9suR0IcWZPlaDRLY34aM4zDcoPjW/LRY0iSgAu9NozbauxDUg3fYTMSysQEqXVGJ2ovhTYoUo5QNoqiCCIgxj0tDh4ef/Kam4erzFJCMe4paS2dyYSV1a5pgaA7+ooS1hkIKwfnzFkOfeiqXhmQbNtjpmRl7eiRpKp6NGZKJtVcaMh5NRKSJ/agb45Z53ufqAmhEZg1amQVRIKd5vLre9+dcoRWBftpOBLaQEq7RDiUECfWKUEWmSMhGsjY5SzoklQNVn308eDAWzAQ4rhXsutLlrsAAAPhSURBVFZCZi0l1WwIqSGzO5UMD5oGNzXa2jwIcbxlVjOEdoljZrU+K8/UTnN4wd/MXPzvNFvCD5jwvdfxV6LsF2XZfXxNLG81QyhFJsqSZkaWz1SekWl5cr5GqmKu4bkbitcZxE5z4bNdfwTzcEvYN74l7Mp7S4jfrPXv1y4i4WLn4Opi5+zhQ/KauyeU8EP4SffO3KHPn6DtSU0UxhfD0hMPZ3NNuitoZTVxkSqTMP40ZpIkBjCDxGcIZQ1f4ncymt0TX+eBVdcIJUQNo0bcRJMZwgDLZMNwB8IE7dp2grZadF+VIVw8u3Fnf7H73Y0Hm+ORUA+RQhS0Cj3VmRCaOVL6PAcq9LApSliE2IUlqrI1Q2jWSEdKm6QdNWAX4sNtjVqHo53GCtMESgEM4Oip4OqBDgMXaiGjPRWbANoSNOjh2JTQiJQ2AHGRdHFPptdAnLpFx7pbSk4QGgifPny+f/j09unZjzhupiPMitrByWoN4jRECGXNAXmiR8Bm9EPUCWGwbCWaCrYjVAz8QK4cjTEzq3CFPlb0eTFnOqvYBmCmCcjSgRCQY3iMFGlHQ5ZdECqg1oMWqGOWXexrooUulLrIHsPUcSiHkWNdFarEFWUcpXub/cMfbi9Of3o6EgIb9WGrA70eCPEzQR+1T9P59tbEuHS8Wmaz7Do50sBxgA45CooSBrApM3N6opUfVaEvkzzCDCE+0L2puiPFO/2wDEvJiNk8wthlJjlaruXerQYQ36EKVSwDfBa2xq40u/EMoUcJA5ZwBSvAE1pelNhTwgofXbWcEjouPp9reqIVGp0B9EIuUzJOYNPg854GQist1DbQJoRAa6u6JoQ6Q1j8PCE/SgnhxmBHKT1sSjtiR6lpOCDL1VaymFG6wZ4vNh6loy+G5+E4qukoXR1ZAOqN0aV56SzCeFImk1GKjRhFobRspmT0q1WWolE6nmiFCVHFIHKhOx2lO7vfoZXmP67diE+ZtdRDGHqrt+NKY8Wx7S9dqOfMSnPUBOvALLOEOPgMuwXizQuNWWkC6IcpSOqAWWnkOjOghFYvZqVBH6NDDk5n7DRmGPpQl6DWpGOEZRMGpQeiYoywxIRLGGwqUDcKu9Ls7OxdubnYeXbt2jN2t1ATGSlDFX1kQuhkWVXpwK5oUGvnE5VUqEE3y1yW0CxU9JuMPf8wqNBab2kV60+DKqu4kYCx6qsVmaKVwdhpJNLIskqIEtdFyWqVj++QUVuSgUPcpK4ikuJ6H9GO/zF8a9sSfsiE772d5tfGzPzpc7G8UsSSGaJMy2ZkxUzlWZk200giypKZRozqnI1UM9QXrfx/yxZigustbawAAAAASUVORK5CYII=;" vertex="1" parent="7">
                    <mxGeometry x="460" y="95" width="275" height="275" as="geometry"/>
                </mxCell>
                <mxCell id="24" value="&lt;font style=&quot;font-size: 16px;&quot;&gt;Put in a number to multiply&amp;nbsp;&lt;/font&gt;" style="text;html=1;strokeColor=none;fillColor=none;align=center;verticalAlign=middle;whiteSpace=wrap;rounded=0;" vertex="1" parent="7">
                    <mxGeometry x="20" y="140" width="200" height="30" as="geometry"/>
                </mxCell>
                <mxCell id="25" value="number 1" style="text;html=1;strokeColor=none;fillColor=none;align=center;verticalAlign=middle;whiteSpace=wrap;rounded=0;fontSize=16;" vertex="1" parent="7">
                    <mxGeometry x="15" y="192.5" width="70" height="30" as="geometry"/>
                </mxCell>
                <mxCell id="26" value="" style="rounded=1;whiteSpace=wrap;html=1;fontSize=16;" vertex="1" parent="7">
                    <mxGeometry x="110" y="195" width="120" height="25" as="geometry"/>
                </mxCell>
                <mxCell id="27" value="number 2" style="text;html=1;strokeColor=none;fillColor=none;align=center;verticalAlign=middle;whiteSpace=wrap;rounded=0;fontSize=16;" vertex="1" parent="7">
                    <mxGeometry x="15" y="240" width="70" height="30" as="geometry"/>
                </mxCell>
                <mxCell id="28" value="" style="rounded=1;whiteSpace=wrap;html=1;fontSize=16;" vertex="1" parent="7">
                    <mxGeometry x="110" y="240" width="120" height="20" as="geometry"/>
                </mxCell>
            </root>
        </mxGraphModel>
    </diagram>
</mxfile>